<svg width="72" height="72" viewBox="0 0 72 72" fill="none" xmlns="http://www.w3.org/2000/svg">
<path fill-rule="evenodd" clip-rule="evenodd" d="M70 36C70 17.2256 54.7824 2 36 2C17.2259 2 2 17.2259 2 36C2 54.7741 17.2259 70 36 70C54.7744 70 70 54.7824 70 36ZM72 36C72 16.1213 55.8873 0 36 0C16.1213 0 0 16.1213 0 36C0 55.8787 16.1213 72 36 72C55.8787 72 72 55.8873 72 36Z" fill="#F2F1EB"/>
<path d="M39.8114 33.1153L40.088 31.993C41.8348 31.8665 43.7159 31.5662 45.7315 31.0761C45.194 32.649 44.8067 33.9215 44.5617 34.8858L43.3286 39.9997C46.0318 39.9997 48.0631 39.32 49.4305 37.9684C50.7979 36.6168 51.4777 35.0044 51.4777 33.1391C51.4777 31.8428 50.9876 30.7916 49.9996 29.9933C49.0116 29.195 47.5415 28.7998 45.5892 28.7998C42.8228 28.7998 40.1908 29.4558 37.6773 30.7758C35.1717 32.0878 33.2194 33.8109 31.8204 35.9292C30.4214 38.0474 29.7259 40.1736 29.7259 42.2998C29.7259 42.8847 29.8049 43.4221 29.963 43.9201C30.1211 44.418 30.3582 44.8686 30.6585 45.2875C30.8403 45.5325 31.2434 45.8724 31.8758 46.2992C32.5792 46.7892 33.0139 47.1528 33.1799 47.3899C33.3459 47.6271 33.4328 47.9037 33.4328 48.2278C33.4328 48.5518 33.3143 48.8285 33.0772 49.0656C32.84 49.3027 32.5555 49.4213 32.2156 49.4213C31.3462 49.4213 30.461 48.789 29.5678 47.5164C28.6746 46.2439 28.2241 44.6789 28.2241 42.8135C28.2241 40.2447 28.9908 37.755 30.5242 35.3443C32.0576 32.9336 34.2312 31.005 37.045 29.5506C39.8588 28.0963 42.9492 27.3691 46.3322 27.3691C49.0827 27.3691 51.1694 27.9145 52.6 28.9974C54.0306 30.0802 54.742 31.4081 54.742 32.9652C54.742 34.4511 54.2599 35.7948 53.2956 37.012C52.3313 38.2292 50.877 39.1619 48.9168 39.8258C50.2604 40.0392 51.3275 40.4028 52.1021 40.9166C52.8846 41.4303 53.4774 42.0706 53.9042 42.8531C54.3231 43.6356 54.5365 44.5287 54.5365 45.5325C54.5365 47.1844 54.0544 48.7415 53.0822 50.2196C52.11 51.6897 50.6794 52.9148 48.7982 53.887C46.9091 54.8592 44.9411 55.3414 42.8939 55.3414C42.3011 55.3414 41.0207 55.2781 39.0684 55.1596C38.1357 55.1121 37.1556 55.0884 36.136 55.0884C34.5789 55.0884 33.1957 55.207 31.9864 55.452L32.3342 54.1874C33.9387 54.0925 35.0848 53.7131 35.7645 53.0334C36.4443 52.3537 37.0845 50.8598 37.6773 48.5439L41.0681 35.2178C41.2025 34.6487 41.2736 34.214 41.2736 33.9215C41.2736 33.6923 41.1788 33.4868 40.9891 33.3129C40.7994 33.1391 40.5543 33.0442 40.2698 33.0442C40.1433 33.0442 39.9932 33.0679 39.8114 33.1153ZM42.9572 41.375L41.7874 45.9909C41.1946 48.3779 40.6176 50.2117 40.0722 51.5C39.7481 52.2667 39.3292 52.9148 38.8155 53.4444C40.1908 53.7843 41.3764 53.9503 42.3723 53.9503C45.0438 53.9503 47.0672 53.1282 48.4346 51.4684C49.802 49.8165 50.4897 47.9748 50.4897 45.9356C50.4897 44.9239 50.2367 44.0545 49.723 43.3352C49.2092 42.6159 48.5374 42.1022 47.7075 41.8097C46.8775 41.5252 45.2967 41.375 42.9572 41.375Z" fill="#BCA36E"/>
<path d="M29.6697 42.5847C29.1164 42.6638 28.5632 42.7033 28.002 42.7033C27.4566 42.7033 26.2789 42.648 24.4847 42.5373C23.6311 42.4978 22.73 42.4741 21.7894 42.4741C20.3588 42.4741 19.0863 42.5847 17.9797 42.8139L18.2959 41.6521C19.7739 41.5651 20.8172 41.2173 21.4417 40.5929C22.0661 39.9685 22.651 38.5932 23.1963 36.467L26.3105 24.2238C26.437 23.7021 26.5002 23.3069 26.5002 23.0382C26.5002 22.8248 26.4133 22.6351 26.2394 22.477C26.0655 22.311 25.8442 22.232 25.5755 22.232C25.4648 22.232 25.3225 22.2557 25.1565 22.2952L25.4095 21.2598C27.014 21.1491 28.737 20.8646 30.5945 20.414C30.1044 21.8605 29.7488 23.0303 29.5195 23.9155L28.3814 28.6184C30.8632 28.6184 32.7365 27.994 33.9853 26.753C35.242 25.5121 35.8665 24.0341 35.8665 22.3189C35.8665 21.1254 35.4159 20.1611 34.507 19.4339C33.598 18.7068 32.2464 18.3353 30.4522 18.3353C27.9071 18.3353 25.4885 18.936 23.1884 20.1453C20.8884 21.3546 19.0942 22.9354 17.8058 24.8798C16.5175 26.8242 15.8772 28.7765 15.8772 30.7287C15.8772 31.2662 15.9484 31.7563 16.0986 32.2147C16.2487 32.6731 16.4621 33.092 16.7388 33.4714C16.9048 33.6927 17.2763 34.0089 17.8532 34.3962C18.5014 34.8467 18.8966 35.1787 19.0547 35.4C19.2127 35.6213 19.2839 35.8742 19.2839 36.1667C19.2839 36.4591 19.1732 36.72 18.9598 36.9334C18.7385 37.1547 18.4777 37.2574 18.1694 37.2574C17.3711 37.2574 16.557 36.6725 15.735 35.5107C14.913 34.3409 14.502 32.9023 14.502 31.1872C14.502 28.8239 15.2054 26.5396 16.6202 24.3265C18.035 22.1134 20.0268 20.335 22.6115 18.9992C25.1961 17.6634 28.0415 16.9995 31.1399 16.9995C33.6691 16.9995 35.5898 17.4975 36.9019 18.4934C38.2139 19.4893 38.87 20.7065 38.87 22.1371C38.87 23.4966 38.4273 24.7375 37.5421 25.8599C36.6569 26.9743 35.3132 27.8359 33.519 28.4445C34.752 28.6421 35.7321 28.9741 36.4434 29.4404C36.973 29.7882 37.3603 30.128 37.7081 30.6102L34.6967 32.5546C34.5781 32.2068 34.4516 31.9776 34.2382 31.6772C33.7719 31.0133 33.1475 30.539 32.3887 30.2782C31.622 30.0095 30.1677 29.8751 28.0257 29.8751L26.9507 34.1116C26.4054 36.3011 25.8758 37.9925 25.3779 39.1702C25.0775 39.8737 24.6981 40.4665 24.2239 40.9565C25.4885 41.2648 26.5793 41.4228 27.4882 41.4228C28.2865 41.4228 29.0295 41.3438 29.7013 41.1778L29.6697 42.5847Z" fill="#BCA36E"/>
<path d="M30.2715 42.4747C31.3701 42.2613 32.437 41.8898 33.4803 41.3524C35.2112 40.4592 36.5231 39.3368 37.4162 37.9853C38.3093 36.6337 38.7519 35.1951 38.7519 33.6776C38.7519 32.8002 38.578 32.0177 38.2382 31.3301C38.1987 31.3459 38.167 31.3696 38.1275 31.3854C36.9736 31.9782 35.9304 32.658 34.9899 33.4167V33.4009C35.0215 33.6143 35.0294 33.8356 35.0294 34.0649C35.0294 35.9302 34.405 37.6296 33.1483 39.1471C32.4212 40.0245 31.4886 40.6489 30.3584 41.0204C30.3031 41.4472 30.2715 41.874 30.2715 42.3008V42.4747Z" fill="#BCA36E"/>
<path d="M40.3728 32.7935L40.661 31.6239C42.4812 31.4921 44.4415 31.1791 46.5417 30.6685C45.9817 32.3075 45.5781 33.6336 45.3228 34.6384L44.0379 39.9673C46.8547 39.9673 48.9715 39.259 50.3963 37.8506C51.8212 36.4421 52.5295 34.7619 52.5295 32.8182C52.5295 31.4674 52.0189 30.372 50.9893 29.5401C49.9598 28.7083 48.4279 28.2964 46.3935 28.2964C43.5108 28.2964 40.7681 28.98 38.149 30.3555C35.538 31.7227 33.5037 33.5183 32.0459 35.7256C30.588 37.9329 29.8632 40.1485 29.8632 42.3641C29.8632 42.9735 29.9456 43.5336 30.1103 44.0525C30.275 44.5714 30.5221 45.0409 30.8351 45.4774C31.0246 45.7327 31.4446 46.0869 32.1035 46.5316C32.8365 47.0423 33.2895 47.4211 33.4625 47.6682C33.6355 47.9153 33.7261 48.2036 33.7261 48.5413C33.7261 48.879 33.6025 49.1672 33.3554 49.4143C33.1083 49.6614 32.8118 49.785 32.4577 49.785C31.5517 49.785 30.6292 49.1261 29.6985 47.8C28.7678 46.474 28.2983 44.8432 28.2983 42.8994C28.2983 40.2226 29.0973 37.6282 30.6951 35.1161C32.2929 32.604 34.5579 30.5944 37.4901 29.0789C40.4222 27.5634 43.6426 26.8057 47.1677 26.8057C50.0339 26.8057 52.2083 27.374 53.6991 28.5023C55.1899 29.6307 55.9311 31.0144 55.9311 32.637C55.9311 34.1854 55.4287 35.5856 54.4239 36.854C53.4191 38.1224 51.9036 39.0942 49.861 39.7861C51.2611 40.0085 52.373 40.3873 53.1802 40.9227C53.9956 41.4581 54.6133 42.1252 55.0581 42.9406C55.4946 43.756 55.717 44.6867 55.717 45.7327C55.717 47.4541 55.2146 49.0766 54.2015 50.6168C53.1884 52.1488 51.6977 53.4254 49.7374 54.4385C47.7689 55.4515 45.7181 55.954 43.5849 55.954C42.9672 55.954 41.6329 55.8881 39.5985 55.7645C38.6267 55.7151 37.6054 55.6904 36.5429 55.6904C34.9203 55.6904 33.479 55.8139 32.2188 56.0693L32.5812 54.7515C34.2532 54.6526 35.4474 54.2573 36.1558 53.549C36.8641 52.8406 37.5312 51.284 38.149 48.8707L41.6823 34.9843C41.8223 34.3913 41.8965 33.9383 41.8965 33.6336C41.8965 33.3947 41.7976 33.1806 41.6 32.9994C41.4023 32.8182 41.147 32.7193 40.8505 32.7193C40.7187 32.7193 40.5622 32.744 40.3728 32.7935ZM43.6508 41.4086L42.4318 46.2186C41.8141 48.706 41.2129 50.6168 40.6446 51.9594C40.3069 52.7583 39.8703 53.4336 39.335 53.9855C40.7681 54.3396 42.0035 54.5126 43.0413 54.5126C45.8252 54.5126 47.9337 53.656 49.3586 51.9264C50.7834 50.205 51.5 48.286 51.5 46.161C51.5 45.1067 51.2364 44.2007 50.7011 43.4512C50.1657 42.6935 49.4656 42.1664 48.6008 41.8616C47.736 41.5569 46.0887 41.4086 43.6508 41.4086Z" fill="#F2F1EB"/>
<path d="M29.8045 42.6609C29.2279 42.7433 28.6514 42.7845 28.0666 42.7845C27.4983 42.7845 26.2711 42.7268 24.4015 42.6115C23.512 42.5703 22.573 42.5456 21.5929 42.5456C20.1021 42.5456 18.7761 42.6609 17.623 42.8998L17.9524 41.689C19.4926 41.5984 20.5798 41.236 21.2305 40.5854C21.8812 39.9347 22.4907 38.5016 23.059 36.286L26.3041 23.528C26.4358 22.9844 26.5017 22.5726 26.5017 22.2925C26.5017 22.0702 26.4111 21.8725 26.2299 21.7078C26.0487 21.5348 25.8181 21.4524 25.5381 21.4524C25.4228 21.4524 25.2745 21.4771 25.1016 21.5183L25.3651 20.4394C27.0371 20.3241 28.8326 20.0276 30.7681 19.5581C30.2575 21.0653 29.8868 22.2843 29.648 23.2068L28.462 28.1074C31.0482 28.1074 33.0002 27.4567 34.3015 26.1636C35.6111 24.8705 36.2617 23.3303 36.2617 21.543C36.2617 20.2994 35.7923 19.2945 34.8451 18.5368C33.8979 17.779 32.4895 17.3919 30.6199 17.3919C27.9678 17.3919 25.4475 18.0179 23.0507 19.2781C20.654 20.5382 18.7843 22.1855 17.4418 24.2116C16.0993 26.2377 15.4321 28.2721 15.4321 30.3065C15.4321 30.8665 15.5063 31.3772 15.6628 31.8549C15.8192 32.3326 16.0416 32.7691 16.3299 33.1645C16.5029 33.3951 16.89 33.7245 17.4912 34.1281C18.1666 34.5976 18.5784 34.9435 18.7431 35.1741C18.9079 35.4047 18.982 35.6683 18.982 35.9731C18.982 36.2778 18.8667 36.5496 18.6443 36.772C18.4137 37.0026 18.1419 37.1097 17.8207 37.1097C16.9888 37.1097 16.1405 36.5002 15.2839 35.2894C14.4273 34.0705 13.999 32.5715 13.999 30.7842C13.999 28.3215 14.7321 25.9412 16.2064 23.6351C17.6807 21.3289 19.7562 19.4757 22.4495 18.0838C25.1427 16.6919 28.1078 16 31.3364 16C33.9721 16 35.9735 16.5189 37.3407 17.5567C38.7079 18.5944 39.3915 19.8628 39.3915 21.3536C39.3915 22.7702 38.9303 24.0633 38.0078 25.2329C37.0854 26.3942 35.6852 27.292 33.8156 27.9262C35.1004 28.1321 36.1217 28.478 36.863 28.964C37.4148 29.3263 37.8184 29.6805 38.1808 30.1829L35.0428 32.2091C34.9192 31.8467 34.7874 31.6078 34.5651 31.2948C34.0791 30.603 33.4285 30.1088 32.6378 29.837C31.8389 29.557 30.3234 29.4169 28.0913 29.4169L26.9959 33.8481C26.4276 36.1295 25.8758 37.8921 25.3569 39.1193C25.0439 39.8524 24.6486 40.4701 24.1544 40.9807C25.4722 41.3019 26.6088 41.4667 27.556 41.4667C28.3878 41.4667 29.1621 41.3843 29.8621 41.2113L29.8045 42.6609Z" fill="#F2F1EB"/>
<path d="M30.4316 42.5448C31.5764 42.3224 32.6882 41.9353 33.7753 41.3753C35.579 40.4446 36.9461 39.275 37.8767 37.8666C38.8074 36.4582 39.2686 34.9592 39.2686 33.3778C39.2686 32.4636 39.0874 31.6482 38.7333 30.9316C38.6921 30.9481 38.6591 30.9728 38.618 30.9893C37.4155 31.607 36.3284 32.3153 35.3484 33.106V33.0896C35.3813 33.3119 35.3896 33.5425 35.3896 33.7814C35.3896 35.7252 34.7389 37.496 33.4294 39.0773C32.6718 39.9916 31.6999 40.6422 30.5222 41.0293C30.4646 41.4741 30.4316 41.9189 30.4316 42.3636V42.5448Z" fill="#F2F1EB"/>
</svg>
