<svg width="174" height="49" viewBox="0 0 174 49" fill="none" xmlns="http://www.w3.org/2000/svg">
<path d="M70.6098 16.6525C71.7766 16.8345 72.6147 17.205 73.1244 17.7639C73.6474 18.3228 73.9089 19.0117 73.9089 19.8306C73.9089 20.7145 73.6206 21.4684 73.0439 22.0924C72.4672 22.7033 71.7162 23.1647 70.7909 23.4767C69.8789 23.7886 68.92 23.9446 67.9142 23.9446L66.4457 23.9251C65.6411 23.8991 64.9772 23.8861 64.4542 23.8861C63.3813 23.8861 62.5633 23.9056 62 23.9446L62.0805 23.5547C62.5633 23.5287 62.9254 23.4767 63.1668 23.3987C63.4081 23.3207 63.5959 23.1712 63.73 22.9502C63.8775 22.7293 64.0183 22.3718 64.1525 21.8779L66.8078 12.2071C66.9151 11.8171 66.9687 11.5052 66.9687 11.2712C66.9687 11.0242 66.8682 10.8423 66.667 10.7253C66.4792 10.6083 66.1306 10.5433 65.6209 10.5303L65.7215 10.1404C66.258 10.1793 67.0559 10.1988 68.1154 10.1988C68.7189 10.1988 69.1748 10.1923 69.4833 10.1793L70.9518 10.1598C72.199 10.1598 73.1378 10.3808 73.7681 10.8228C74.4118 11.2647 74.7337 11.8756 74.7337 12.6555C74.7337 13.5914 74.3313 14.4038 73.5267 15.0927C72.7354 15.7816 71.7632 16.3016 70.6098 16.6525ZM67.4515 16.6135H68.7792C69.5705 16.6135 70.2611 16.4381 70.8512 16.0871C71.4547 15.7362 71.9174 15.2682 72.2392 14.6833C72.5745 14.0984 72.7421 13.4679 72.7421 12.792C72.7421 12.0251 72.5678 11.4597 72.2191 11.0957C71.8704 10.7188 71.3206 10.5303 70.5696 10.5303C69.9795 10.5303 69.5638 10.6213 69.3224 10.8033C69.081 10.9852 68.8865 11.3557 68.739 11.9146L67.4515 16.6135ZM67.0492 23.4962C68.7524 23.4962 69.9862 23.1647 70.7506 22.5018C71.515 21.8259 71.8973 20.838 71.8973 19.5382C71.8973 17.8094 70.9384 16.945 69.0206 16.945H67.3711L66.0233 21.8779C65.9026 22.3458 65.8422 22.6643 65.8422 22.8333C65.8422 23.0672 65.9294 23.2362 66.1037 23.3402C66.2915 23.4442 66.6067 23.4962 67.0492 23.4962Z" fill="#05342F"/>
<path d="M85.5979 20.786H85.9801L85.4772 22.2093C84.9944 23.5482 84.1831 24.2176 83.0431 24.2176C82.8286 24.2176 82.6274 24.1721 82.4397 24.0811C82.2519 23.9901 82.1111 23.8601 82.0172 23.6912C81.9367 23.5092 81.8965 23.3077 81.8965 23.0867C81.8965 22.7488 81.9904 22.2158 82.1781 21.4879L82.8621 18.8948H78.9193L77.6117 23.9446H75.8616L78.2756 15.5802C78.3694 15.2812 78.4164 15.0407 78.4164 14.8588C78.4164 14.5338 78.2756 14.3713 77.9939 14.3713C77.6989 14.3713 77.424 14.5273 77.1692 14.8393C76.9278 15.1382 76.6797 15.6452 76.4249 16.3601L76.1633 17.0815H75.7811L76.284 15.6582C76.7668 14.3193 77.5782 13.6499 78.7181 13.6499C79.4826 13.6499 79.8648 14.0334 79.8648 14.8003C79.8648 15.1772 79.7709 15.7037 79.5831 16.3796L79.0199 18.5048H82.9627L84.1496 13.9229C84.914 13.8969 85.5242 13.8059 85.9801 13.6499L83.4857 22.2873C83.3918 22.6253 83.3449 22.8788 83.3449 23.0477C83.3449 23.3467 83.4857 23.4962 83.7673 23.4962C84.0624 23.4962 84.3306 23.3467 84.572 23.0477C84.8268 22.7358 85.0816 22.2223 85.3364 21.5074L85.5979 20.786Z" fill="#05342F"/>
<path d="M95.333 14.9368C95.333 15.9896 94.7228 16.9125 93.5024 17.7054C92.282 18.4983 90.8873 19.1417 89.3182 19.6357C89.1707 20.2856 89.0969 20.916 89.0969 21.5269C89.0969 22.7748 89.5596 23.3987 90.485 23.3987C91.6383 23.3987 92.6709 22.7488 93.5829 21.4489L93.9047 21.6049C93.4756 22.3198 92.8922 22.9373 92.1546 23.4572C91.4304 23.9641 90.666 24.2176 89.8613 24.2176C89.0299 24.2176 88.3794 23.9836 87.9101 23.5157C87.4407 23.0477 87.206 22.3653 87.206 21.4684C87.206 20.4806 87.501 19.3692 88.0911 18.1344C88.6946 16.8865 89.506 15.8271 90.5252 14.9562C91.5444 14.0854 92.6508 13.6499 93.8444 13.6499C94.2735 13.6499 94.6289 13.7604 94.9106 13.9814C95.1922 14.2023 95.333 14.5208 95.333 14.9368ZM93.4018 14.0204C92.9727 14.0204 92.4899 14.2673 91.9534 14.7613C91.4304 15.2422 90.9342 15.8856 90.4648 16.6915C90.0089 17.4974 89.6602 18.3553 89.4188 19.2652C90.6928 18.8363 91.6048 18.4203 92.1546 18.0174C92.6508 17.6404 93.033 17.1855 93.3012 16.6525C93.5829 16.1066 93.7237 15.5217 93.7237 14.8978C93.7237 14.5468 93.6969 14.3128 93.6432 14.1958C93.5896 14.0789 93.5091 14.0204 93.4018 14.0204Z" fill="#05342F"/>
<path d="M109.991 15.3072C109.991 16.0481 109.615 16.737 108.864 17.3739C108.113 17.9979 107.168 18.4658 106.028 18.7778C106.752 18.8038 107.342 18.9922 107.798 19.3432C108.267 19.6942 108.502 20.1881 108.502 20.825C108.502 21.3839 108.321 21.9234 107.959 22.4433C107.597 22.9632 107.094 23.3922 106.45 23.7302C105.806 24.0551 105.082 24.2176 104.278 24.2176C103.151 24.2176 102.333 23.9056 101.823 23.2817C101.314 22.6578 101.059 21.8649 101.059 20.903C101.059 19.7851 101.367 18.6608 101.984 17.5299C102.601 16.3991 103.419 15.4697 104.438 14.7418C105.471 14.0139 106.564 13.6499 107.717 13.6499C108.415 13.6499 108.965 13.7929 109.367 14.0789C109.783 14.3518 109.991 14.7613 109.991 15.3072ZM103.232 18.7973C104.117 18.8363 104.955 18.7193 105.746 18.4463C106.537 18.1603 107.174 17.7444 107.657 17.1985C108.14 16.6525 108.381 16.0286 108.381 15.3267C108.381 14.8848 108.281 14.5598 108.08 14.3518C107.892 14.1309 107.644 14.0204 107.335 14.0204C106.866 14.0204 106.356 14.2283 105.806 14.6443C105.257 15.0602 104.747 15.6387 104.278 16.3796C103.808 17.1075 103.459 17.9134 103.232 18.7973ZM106.812 20.942C106.812 20.3571 106.665 19.8956 106.37 19.5577C106.075 19.2197 105.672 19.0247 105.163 18.9727C104.532 19.0897 103.862 19.1352 103.151 19.1092C103.017 19.7591 102.95 20.3701 102.95 20.942C102.95 21.8389 103.091 22.5538 103.372 23.0867C103.667 23.6067 104.09 23.8666 104.64 23.8666C105.055 23.8666 105.424 23.7237 105.746 23.4377C106.081 23.1387 106.343 22.7618 106.531 22.3068C106.718 21.8519 106.812 21.3969 106.812 20.942Z" fill="#05342F"/>
<path d="M118.491 13.6499C119.148 13.6499 119.658 13.8839 120.02 14.3518C120.395 14.8068 120.583 15.4892 120.583 16.3991C120.583 17.4519 120.342 18.5958 119.859 19.8306C119.376 21.0525 118.686 22.0924 117.787 22.9502C116.888 23.7951 115.856 24.2176 114.689 24.2176C114.327 24.2176 113.998 24.1201 113.703 23.9251C113.408 23.7172 113.194 23.4377 113.06 23.0867L112.295 25.6604C112.242 25.8164 112.215 25.9724 112.215 26.1284C112.215 26.4663 112.362 26.7068 112.657 26.8498C112.952 26.9927 113.375 27.0642 113.925 27.0642L113.804 27.4737L113.381 27.4542C112.215 27.4152 111.457 27.3957 111.108 27.3957C110.746 27.3957 110.002 27.4217 108.875 27.4737L108.996 27.0642C109.479 27.0642 109.828 26.9797 110.042 26.8108C110.257 26.6418 110.431 26.3233 110.565 25.8554L114.327 12.8505C113.925 13.7214 113.455 14.4883 112.919 15.1512C112.382 15.8141 111.719 16.5096 110.927 17.2375L110.706 16.984C111.336 16.3861 111.859 15.8531 112.275 15.3852C112.704 14.9173 113.127 14.3518 113.542 13.6889C113.972 13.013 114.394 12.1876 114.81 11.2127L114.89 10.9397C115.614 10.9138 116.225 10.8228 116.721 10.6668L114.629 17.7639C115.259 16.3211 115.883 15.2747 116.5 14.6248C117.13 13.9749 117.794 13.6499 118.491 13.6499ZM114.669 23.7691C115.38 23.7691 116.057 23.3402 116.701 22.4823C117.344 21.6114 117.861 20.5585 118.25 19.3237C118.652 18.0889 118.853 16.971 118.853 15.9701C118.853 15.4112 118.766 14.9887 118.592 14.7028C118.431 14.4168 118.203 14.2738 117.908 14.2738C117.532 14.2738 117.09 14.5728 116.58 15.1707C116.084 15.7556 115.581 16.5485 115.071 17.5494C114.562 18.5503 114.112 19.6422 113.723 20.825L113.2 22.5993C113.361 23.0152 113.563 23.3142 113.804 23.4962C114.045 23.6782 114.334 23.7691 114.669 23.7691Z" fill="#05342F"/>
<path d="M129.712 14.9368C129.712 15.9896 129.101 16.9125 127.881 17.7054C126.661 18.4983 125.266 19.1417 123.697 19.6357C123.549 20.2856 123.476 20.916 123.476 21.5269C123.476 22.7748 123.938 23.3987 124.864 23.3987C126.017 23.3987 127.05 22.7488 127.961 21.4489L128.283 21.6049C127.854 22.3198 127.271 22.9373 126.533 23.4572C125.809 23.9641 125.045 24.2176 124.24 24.2176C123.408 24.2176 122.758 23.9836 122.289 23.5157C121.819 23.0477 121.585 22.3653 121.585 21.4684C121.585 20.4806 121.88 19.3692 122.47 18.1344C123.073 16.8865 123.885 15.8271 124.904 14.9562C125.923 14.0854 127.029 13.6499 128.223 13.6499C128.652 13.6499 129.008 13.7604 129.289 13.9814C129.571 14.2023 129.712 14.5208 129.712 14.9368ZM127.78 14.0204C127.351 14.0204 126.868 14.2673 126.332 14.7613C125.809 15.2422 125.313 15.8856 124.843 16.6915C124.387 17.4974 124.039 18.3553 123.797 19.2652C125.071 18.8363 125.983 18.4203 126.533 18.0174C127.029 17.6404 127.412 17.1855 127.68 16.6525C127.961 16.1066 128.102 15.5217 128.102 14.8978C128.102 14.5468 128.075 14.3128 128.022 14.1958C127.968 14.0789 127.888 14.0204 127.78 14.0204Z" fill="#05342F"/>
<path d="M141.796 20.7665H142.178L141.675 22.1898C141.42 22.9178 141.085 23.4377 140.669 23.7496C140.253 24.0616 139.818 24.2176 139.362 24.2176C139.107 24.2176 138.886 24.1721 138.698 24.0811C138.51 23.9901 138.363 23.8666 138.255 23.7107C138.135 23.5157 138.074 23.2882 138.074 23.0282C138.074 22.7553 138.121 22.4498 138.215 22.1119C138.309 21.7739 138.369 21.5594 138.396 21.4684L139.945 15.5217L134.856 24.0421H134.473L134.131 15.5412C133.716 18.0759 133.246 20.0191 132.723 21.3709C132.2 22.7228 131.577 23.5872 130.852 23.9641C130.531 24.1331 130.142 24.2176 129.686 24.2176C129.35 24.2176 129.102 24.1461 128.941 24.0031C128.767 23.8731 128.68 23.6912 128.68 23.4572C128.68 23.1582 128.801 22.8853 129.042 22.6383C129.27 22.3913 129.545 22.2678 129.867 22.2678C130.081 22.2678 130.242 22.3263 130.349 22.4433C130.47 22.5473 130.531 22.6903 130.531 22.8723C130.531 23.2362 130.343 23.5872 129.967 23.9251H129.987C130.242 23.8991 130.517 23.7951 130.812 23.6132C131.563 23.1192 132.18 22.0729 132.663 20.4741C133.146 18.8623 133.615 16.6785 134.071 13.9229C134.728 13.8969 135.278 13.8059 135.721 13.6499L135.922 21.5659L140.287 14.2348L140.367 13.9229C141.105 13.8969 141.722 13.8059 142.218 13.6499L139.704 22.2678C139.69 22.3198 139.663 22.4238 139.623 22.5798C139.583 22.7228 139.563 22.8593 139.563 22.9892C139.563 23.3142 139.71 23.4767 140.005 23.4767C140.595 23.4767 141.112 22.8138 141.554 21.4879L141.796 20.7665Z" fill="#05342F"/>
<path d="M151.537 14.9368C151.537 15.9896 150.927 16.9125 149.706 17.7054C148.486 18.4983 147.091 19.1417 145.522 19.6357C145.375 20.2856 145.301 20.916 145.301 21.5269C145.301 22.7748 145.764 23.3987 146.689 23.3987C147.842 23.3987 148.875 22.7488 149.787 21.4489L150.109 21.6049C149.68 22.3198 149.096 22.9373 148.359 23.4572C147.634 23.9641 146.87 24.2176 146.065 24.2176C145.234 24.2176 144.584 23.9836 144.114 23.5157C143.645 23.0477 143.41 22.3653 143.41 21.4684C143.41 20.4806 143.705 19.3692 144.295 18.1344C144.899 16.8865 145.71 15.8271 146.729 14.9562C147.748 14.0854 148.855 13.6499 150.048 13.6499C150.478 13.6499 150.833 13.7604 151.115 13.9814C151.396 14.2023 151.537 14.5208 151.537 14.9368ZM149.606 14.0204C149.177 14.0204 148.694 14.2673 148.158 14.7613C147.634 15.2422 147.138 15.8856 146.669 16.6915C146.213 17.4974 145.864 18.3553 145.623 19.2652C146.897 18.8363 147.809 18.4203 148.359 18.0174C148.855 17.6404 149.237 17.1855 149.505 16.6525C149.787 16.1066 149.928 15.5217 149.928 14.8978C149.928 14.5468 149.901 14.3128 149.847 14.1958C149.794 14.0789 149.713 14.0204 149.606 14.0204Z" fill="#05342F"/>
<path d="M162.213 20.786H162.595L162.092 22.2093C161.61 23.5482 160.798 24.2176 159.658 24.2176C159.444 24.2176 159.243 24.1721 159.055 24.0811C158.867 23.9901 158.726 23.8601 158.632 23.6912C158.552 23.5092 158.512 23.3077 158.512 23.0867C158.512 22.7488 158.606 22.2158 158.793 21.4879L159.477 18.8948H155.534L154.227 23.9446H152.477L154.891 15.5802C154.985 15.2812 155.032 15.0407 155.032 14.8588C155.032 14.5338 154.891 14.3713 154.609 14.3713C154.314 14.3713 154.039 14.5273 153.784 14.8393C153.543 15.1382 153.295 15.6452 153.04 16.3601L152.778 17.0815H152.396L152.899 15.6582C153.382 14.3193 154.193 13.6499 155.333 13.6499C156.098 13.6499 156.48 14.0334 156.48 14.8003C156.48 15.1772 156.386 15.7037 156.198 16.3796L155.635 18.5048H159.578L160.765 13.9229C161.529 13.8969 162.139 13.8059 162.595 13.6499L160.101 22.2873C160.007 22.6253 159.96 22.8788 159.96 23.0477C159.96 23.3467 160.101 23.4962 160.382 23.4962C160.678 23.4962 160.946 23.3467 161.187 23.0477C161.442 22.7358 161.697 22.2223 161.952 21.5074L162.213 20.786Z" fill="#05342F"/>
<path d="M173.618 20.786H174L173.497 22.2093C173.014 23.5482 172.203 24.2176 171.063 24.2176C170.848 24.2176 170.647 24.1721 170.46 24.0811C170.272 23.9901 170.131 23.8601 170.037 23.6912C169.957 23.5092 169.916 23.3077 169.916 23.0867C169.916 22.7488 170.01 22.2158 170.198 21.4879L170.822 19.0507C170.044 20.9095 169.286 22.2353 168.548 23.0282C167.811 23.8211 167.006 24.2176 166.134 24.2176C165.008 24.2176 164.445 23.7172 164.445 22.7163C164.445 22.3003 164.539 21.8194 164.726 21.2735L166.678 15.5802C166.785 15.2682 166.839 15.0277 166.839 14.8588C166.839 14.5338 166.678 14.3713 166.356 14.3713C166.088 14.3713 165.826 14.5208 165.571 14.8198C165.33 15.1057 165.075 15.6192 164.807 16.3601L164.545 17.0815H164.163L164.666 15.6582C165.149 14.3193 165.96 13.6499 167.1 13.6499C168.039 13.6499 168.508 14.0529 168.508 14.8588C168.508 15.2487 168.401 15.7556 168.186 16.3796L166.275 21.9559C166.141 22.3458 166.074 22.6708 166.074 22.9308C166.074 23.3727 166.289 23.5937 166.718 23.5937C167.241 23.5937 167.818 23.2232 168.448 22.4823C169.078 21.7284 169.702 20.6885 170.319 19.3627C170.936 18.0369 171.472 16.542 171.928 14.8783L172.169 13.9229C172.934 13.8969 173.544 13.8059 174 13.6499L171.506 22.2873C171.412 22.6253 171.365 22.8788 171.365 23.0477C171.365 23.3467 171.506 23.4962 171.787 23.4962C172.082 23.4962 172.35 23.3467 172.592 23.0477C172.847 22.7358 173.101 22.2223 173.356 21.5074L173.618 20.786Z" fill="#05342F"/>
<path d="M63.9956 31.9865C64.5742 31.9865 65.0187 32.129 65.3289 32.4139C65.6391 32.6931 65.7942 33.1062 65.7942 33.6532V36.4822H65.3647V35.6874C65.2156 35.9495 64.9978 36.1546 64.7115 36.3027C64.4251 36.4452 64.0821 36.5164 63.6824 36.5164C63.1633 36.5164 62.7517 36.3996 62.4474 36.166C62.1491 35.9324 62 35.6247 62 35.2429C62 34.8725 62.1372 34.5734 62.4116 34.3455C62.692 34.1119 63.1365 33.9951 63.745 33.9951H65.3468V33.6361C65.3468 33.2201 65.2275 32.9039 64.9889 32.6874C64.7562 32.4708 64.4132 32.3626 63.9598 32.3626C63.6495 32.3626 63.3513 32.4139 63.0649 32.5164C62.7845 32.619 62.5459 32.7557 62.349 32.9267L62.1253 32.619C62.3579 32.4196 62.6383 32.2657 62.9665 32.1574C63.2946 32.0435 63.6376 31.9865 63.9956 31.9865ZM63.745 36.166C64.1328 36.166 64.4609 36.0805 64.7294 35.9096C65.0038 35.7386 65.2096 35.4908 65.3468 35.166V34.3284H63.7539C63.2946 34.3284 62.9605 34.4082 62.7517 34.5677C62.5489 34.7272 62.4474 34.9466 62.4474 35.2258C62.4474 35.5164 62.5608 35.7472 62.7875 35.9181C63.0142 36.0834 63.3334 36.166 63.745 36.166Z" fill="#05342F"/>
<path d="M67.6122 32.0207H68.0596V34.0549H71.2274V32.0207H71.6749V36.4822H71.2274V34.4309H68.0596V36.4822H67.6122V32.0207Z" fill="#05342F"/>
<path d="M76.7302 32.4053H74.9046V36.4822H74.4572V32.4053H72.6317V32.0207H76.7302V32.4053Z" fill="#05342F"/>
<path d="M77.6882 32.0207H78.1356V35.8241L81.4645 32.0207H81.8583V36.4822H81.4108V32.6788L78.0819 36.4822H77.6882V32.0207Z" fill="#05342F"/>
<path d="M85.3719 34.4139H84.2354V36.4822H83.788V32.0207H84.2354V34.0463H85.3719L87.1348 32.0207H87.627L85.7298 34.1831L87.7701 36.4822H87.2332L85.3719 34.4139Z" fill="#05342F"/>
<path d="M91.6392 34.1831C92.3252 34.297 92.6683 34.6646 92.6683 35.2856C92.6683 35.6731 92.5191 35.9694 92.2208 36.1745C91.9285 36.3797 91.4871 36.4822 90.8964 36.4822H88.874V32.0207H90.8427C91.3618 32.0207 91.7674 32.1204 92.0598 32.3198C92.3581 32.5136 92.5072 32.7928 92.5072 33.1574C92.5072 33.4196 92.4296 33.6389 92.2745 33.8156C92.1254 33.9865 91.9136 34.109 91.6392 34.1831ZM89.3125 34.0549H90.8159C91.2156 34.0549 91.5228 33.9837 91.7376 33.8412C91.9524 33.6931 92.0598 33.4822 92.0598 33.2087C92.0598 32.9295 91.9524 32.7215 91.7376 32.5848C91.5288 32.4423 91.2216 32.3711 90.8159 32.3711H89.3125V34.0549ZM90.8875 36.1318C91.7764 36.1318 92.2208 35.8441 92.2208 35.2686C92.2208 34.9666 92.1194 34.7443 91.9166 34.6019C91.7138 34.4594 91.3946 34.3882 90.9591 34.3882H89.3125V36.1318H90.8875Z" fill="#05342F"/>
<path d="M95.8054 31.9865C96.384 31.9865 96.8285 32.129 97.1387 32.4139C97.4489 32.6931 97.604 33.1062 97.604 33.6532V36.4822H97.1745V35.6874C97.0254 35.9495 96.8076 36.1546 96.5213 36.3027C96.2349 36.4452 95.8919 36.5164 95.4922 36.5164C94.9731 36.5164 94.5615 36.3996 94.2572 36.166C93.9589 35.9324 93.8098 35.6247 93.8098 35.2429C93.8098 34.8725 93.947 34.5734 94.2214 34.3455C94.5018 34.1119 94.9463 33.9951 95.5548 33.9951H97.1566V33.6361C97.1566 33.2201 97.0373 32.9039 96.7987 32.6874C96.566 32.4708 96.223 32.3626 95.7696 32.3626C95.4593 32.3626 95.161 32.4139 94.8747 32.5164C94.5943 32.619 94.3557 32.7557 94.1588 32.9267L93.9351 32.619C94.1677 32.4196 94.4481 32.2657 94.7763 32.1574C95.1044 32.0435 95.4474 31.9865 95.8054 31.9865ZM95.5548 36.166C95.9426 36.166 96.2707 36.0805 96.5392 35.9096C96.8136 35.7386 97.0194 35.4908 97.1566 35.166V34.3284H95.5637C95.1044 34.3284 94.7703 34.4082 94.5615 34.5677C94.3587 34.7272 94.2572 34.9466 94.2572 35.2258C94.2572 35.5164 94.3706 35.7472 94.5973 35.9181C94.824 36.0834 95.1432 36.166 95.5548 36.166Z" fill="#05342F"/>
<path d="M101.775 31.9865C102.211 31.9865 102.605 32.0834 102.957 32.2771C103.309 32.4708 103.583 32.7386 103.78 33.0805C103.983 33.4224 104.084 33.8127 104.084 34.2515C104.084 34.6902 103.983 35.0834 103.78 35.4309C103.583 35.7728 103.309 36.0406 102.957 36.2344C102.605 36.4224 102.211 36.5164 101.775 36.5164C101.364 36.5164 100.991 36.4253 100.657 36.2429C100.323 36.0549 100.063 35.7956 99.8783 35.4651V38.1404H99.4309V32.0207H99.8604V33.072C100.045 32.7301 100.305 32.4651 100.639 32.2771C100.979 32.0834 101.358 31.9865 101.775 31.9865ZM101.749 36.1318C102.107 36.1318 102.429 36.052 102.715 35.8925C103.001 35.7329 103.225 35.5107 103.386 35.2258C103.553 34.9409 103.637 34.6161 103.637 34.2515C103.637 33.8868 103.553 33.562 103.386 33.2771C103.225 32.9922 103.001 32.77 102.715 32.6104C102.429 32.4509 102.107 32.3711 101.749 32.3711C101.391 32.3711 101.069 32.4509 100.782 32.6104C100.502 32.77 100.278 32.9922 100.111 33.2771C99.9499 33.562 99.8694 33.8868 99.8694 34.2515C99.8694 34.6161 99.9499 34.9409 100.111 35.2258C100.278 35.5107 100.502 35.7329 100.782 35.8925C101.069 36.052 101.391 36.1318 101.749 36.1318Z" fill="#05342F"/>
<path d="M105.539 32.0207H105.987V34.0549H109.154V32.0207H109.602V36.4822H109.154V34.4309H105.987V36.4822H105.539V32.0207Z" fill="#05342F"/>
<path d="M113.082 31.9865C113.661 31.9865 114.105 32.129 114.416 32.4139C114.726 32.6931 114.881 33.1062 114.881 33.6532V36.4822H114.451V35.6874C114.302 35.9495 114.085 36.1546 113.798 36.3027C113.512 36.4452 113.169 36.5164 112.769 36.5164C112.25 36.5164 111.838 36.3996 111.534 36.166C111.236 35.9324 111.087 35.6247 111.087 35.2429C111.087 34.8725 111.224 34.5734 111.498 34.3455C111.779 34.1119 112.223 33.9951 112.832 33.9951H114.434V33.6361C114.434 33.2201 114.314 32.9039 114.076 32.6874C113.843 32.4708 113.5 32.3626 113.046 32.3626C112.736 32.3626 112.438 32.4139 112.152 32.5164C111.871 32.619 111.633 32.7557 111.436 32.9267L111.212 32.619C111.445 32.4196 111.725 32.2657 112.053 32.1574C112.381 32.0435 112.724 31.9865 113.082 31.9865ZM112.832 36.166C113.219 36.166 113.548 36.0805 113.816 35.9096C114.09 35.7386 114.296 35.4908 114.434 35.166V34.3284H112.841C112.381 34.3284 112.047 34.4082 111.838 34.5677C111.636 34.7272 111.534 34.9466 111.534 35.2258C111.534 35.5164 111.648 35.7472 111.874 35.9181C112.101 36.0834 112.42 36.166 112.832 36.166Z" fill="#05342F"/>
<path d="M120.144 32.0207V36.4822H119.732V34.9438H118.175C118.068 34.9438 117.99 34.9409 117.943 34.9352L116.788 36.4822H116.296L117.504 34.8839C117.122 34.8042 116.83 34.6475 116.627 34.4139C116.424 34.1802 116.323 33.8782 116.323 33.5079C116.323 33.0178 116.493 32.6475 116.833 32.3968C117.179 32.146 117.65 32.0207 118.247 32.0207H120.144ZM116.77 33.525C116.77 34.2543 117.254 34.619 118.22 34.619H119.732V32.3968H118.274C117.272 32.3968 116.77 32.7728 116.77 33.525Z" fill="#05342F"/>
<path d="M128.452 32.0207V36.4822H128.005V32.4053H124.819V36.4822H124.372V32.0207H128.452Z" fill="#05342F"/>
<path d="M134.035 32.0207V36.4822H133.588V32.4053H131.154L131.091 33.5933C131.055 34.2087 131.002 34.7244 130.93 35.1403C130.858 35.5563 130.736 35.8925 130.563 36.1489C130.39 36.4053 130.151 36.5335 129.847 36.5335C129.758 36.5335 129.629 36.5136 129.462 36.4737L129.507 36.1062C129.603 36.129 129.674 36.1403 129.722 36.1403C129.972 36.1403 130.163 36.0235 130.295 35.7899C130.426 35.5563 130.515 35.2657 130.563 34.9181C130.611 34.5705 130.65 34.1176 130.679 33.5592L130.76 32.0207H134.035Z" fill="#05342F"/>
<path d="M137.516 31.9865C138.095 31.9865 138.54 32.129 138.85 32.4139C139.16 32.6931 139.315 33.1062 139.315 33.6532V36.4822H138.886V35.6874C138.736 35.9495 138.519 36.1546 138.232 36.3027C137.946 36.4452 137.603 36.5164 137.203 36.5164C136.684 36.5164 136.273 36.3996 135.968 36.166C135.67 35.9324 135.521 35.6247 135.521 35.2429C135.521 34.8725 135.658 34.5734 135.932 34.3455C136.213 34.1119 136.657 33.9951 137.266 33.9951H138.868V33.6361C138.868 33.2201 138.748 32.9039 138.51 32.6874C138.277 32.4708 137.934 32.3626 137.481 32.3626C137.17 32.3626 136.872 32.4139 136.586 32.5164C136.305 32.619 136.067 32.7557 135.87 32.9267L135.646 32.619C135.879 32.4196 136.159 32.2657 136.487 32.1574C136.815 32.0435 137.158 31.9865 137.516 31.9865ZM137.266 36.166C137.654 36.166 137.982 36.0805 138.25 35.9096C138.525 35.7386 138.73 35.4908 138.868 35.166V34.3284H137.275C136.815 34.3284 136.481 34.4082 136.273 34.5677C136.07 34.7272 135.968 34.9466 135.968 35.2258C135.968 35.5164 136.082 35.7472 136.308 35.9181C136.535 36.0834 136.854 36.166 137.266 36.166Z" fill="#05342F"/>
<path d="M144.256 32.4053H142.431V36.4822H141.983V32.4053H140.158V32.0207H144.256V32.4053Z" fill="#05342F"/>
<path d="M150.419 34.2429C150.419 34.9438 150.18 35.4936 149.703 35.8925C149.225 36.2856 148.551 36.4965 147.68 36.525V38.1404H147.242V36.525C146.371 36.4965 145.697 36.2856 145.219 35.8925C144.742 35.4936 144.503 34.9438 144.503 34.2429C144.503 33.5535 144.742 33.0121 145.219 32.619C145.703 32.2258 146.377 32.015 147.242 31.9865V30.1404H147.68V31.9865C148.551 32.015 149.225 32.2258 149.703 32.619C150.18 33.0121 150.419 33.5535 150.419 34.2429ZM144.951 34.2429C144.951 34.8184 145.148 35.2714 145.541 35.6019C145.935 35.9324 146.502 36.1119 147.242 36.1403V32.3711C146.502 32.3996 145.935 32.5762 145.541 32.901C145.148 33.2258 144.951 33.6731 144.951 34.2429ZM147.68 36.1403C148.42 36.1119 148.987 35.9352 149.38 35.6104C149.78 35.28 149.98 34.8241 149.98 34.2429C149.98 33.6731 149.78 33.2258 149.38 32.901C148.987 32.5762 148.42 32.3996 147.68 32.3711V36.1403Z" fill="#05342F"/>
<path d="M153.726 36.5164C153.284 36.5164 152.885 36.4196 152.527 36.2258C152.175 36.0321 151.897 35.7643 151.694 35.4224C151.492 35.0748 151.39 34.6845 151.39 34.2515C151.39 33.8184 151.492 33.4309 151.694 33.0891C151.897 32.7415 152.175 32.4708 152.527 32.2771C152.885 32.0834 153.284 31.9865 153.726 31.9865C154.167 31.9865 154.564 32.0834 154.916 32.2771C155.274 32.4708 155.554 32.7415 155.757 33.0891C155.96 33.4309 156.061 33.8184 156.061 34.2515C156.061 34.6845 155.96 35.0748 155.757 35.4224C155.554 35.7643 155.274 36.0321 154.916 36.2258C154.564 36.4196 154.167 36.5164 153.726 36.5164ZM153.726 36.1318C154.084 36.1318 154.403 36.052 154.683 35.8925C154.97 35.7329 155.193 35.5107 155.354 35.2258C155.521 34.9409 155.605 34.6161 155.605 34.2515C155.605 33.8868 155.521 33.562 155.354 33.2771C155.193 32.9922 154.97 32.77 154.683 32.6104C154.403 32.4509 154.084 32.3711 153.726 32.3711C153.368 32.3711 153.046 32.4509 152.759 32.6104C152.479 32.77 152.255 32.9922 152.088 33.2771C151.927 33.562 151.847 33.8868 151.847 34.2515C151.847 34.6161 151.927 34.9409 152.088 35.2258C152.255 35.5107 152.479 35.7329 152.759 35.8925C153.046 36.052 153.368 36.1318 153.726 36.1318Z" fill="#05342F"/>
<path d="M159.872 31.9865C160.308 31.9865 160.701 32.0834 161.053 32.2771C161.405 32.4708 161.68 32.7386 161.877 33.0805C162.079 33.4224 162.181 33.8127 162.181 34.2515C162.181 34.6902 162.079 35.0834 161.877 35.4309C161.68 35.7728 161.405 36.0406 161.053 36.2344C160.701 36.4224 160.308 36.5164 159.872 36.5164C159.46 36.5164 159.088 36.4253 158.753 36.2429C158.419 36.0549 158.16 35.7956 157.975 35.4651V38.1404H157.527V32.0207H157.957V33.072C158.142 32.7301 158.401 32.4651 158.736 32.2771C159.076 32.0834 159.454 31.9865 159.872 31.9865ZM159.845 36.1318C160.203 36.1318 160.525 36.052 160.812 35.8925C161.098 35.7329 161.322 35.5107 161.483 35.2258C161.65 34.9409 161.733 34.6161 161.733 34.2515C161.733 33.8868 161.65 33.562 161.483 33.2771C161.322 32.9922 161.098 32.77 160.812 32.6104C160.525 32.4509 160.203 32.3711 159.845 32.3711C159.487 32.3711 159.165 32.4509 158.879 32.6104C158.598 32.77 158.375 32.9922 158.208 33.2771C158.047 33.562 157.966 33.8868 157.966 34.2515C157.966 34.6161 158.047 34.9409 158.208 35.2258C158.375 35.5107 158.598 35.7329 158.879 35.8925C159.165 36.052 159.487 36.1318 159.845 36.1318Z" fill="#05342F"/>
<path d="M168.719 32.0207V36.4822H168.307V32.7045L166.276 35.9096H166.07L164.047 32.713V36.4822H163.636V32.0207H164.074L166.186 35.3968L168.307 32.0207H168.719Z" fill="#05342F"/>
<path d="M172.201 31.9865C172.78 31.9865 173.224 32.129 173.535 32.4139C173.845 32.6931 174 33.1062 174 33.6532V36.4822H173.57V35.6874C173.421 35.9495 173.204 36.1546 172.917 36.3027C172.631 36.4452 172.288 36.5164 171.888 36.5164C171.369 36.5164 170.957 36.3996 170.653 36.166C170.355 35.9324 170.206 35.6247 170.206 35.2429C170.206 34.8725 170.343 34.5734 170.617 34.3455C170.898 34.1119 171.342 33.9951 171.951 33.9951H173.553V33.6361C173.553 33.2201 173.433 32.9039 173.195 32.6874C172.962 32.4708 172.619 32.3626 172.166 32.3626C171.855 32.3626 171.557 32.4139 171.271 32.5164C170.99 32.619 170.752 32.7557 170.555 32.9267L170.331 32.619C170.564 32.4196 170.844 32.2657 171.172 32.1574C171.5 32.0435 171.843 31.9865 172.201 31.9865ZM171.951 36.166C172.339 36.166 172.667 36.0805 172.935 35.9096C173.21 35.7386 173.415 35.4908 173.553 35.166V34.3284H171.96C171.5 34.3284 171.166 34.4082 170.957 34.5677C170.755 34.7272 170.653 34.9466 170.653 35.2258C170.653 35.5164 170.767 35.7472 170.993 35.9181C171.22 36.0834 171.539 36.166 171.951 36.166Z" fill="#05342F"/>
<path fill-rule="evenodd" clip-rule="evenodd" d="M46.6667 24.1403C46.6667 11.6241 36.5216 1.47368 24 1.47368C11.4839 1.47368 1.33333 11.6243 1.33333 24.1403C1.33333 36.6564 11.4839 46.807 24 46.807C36.5163 46.807 46.6667 36.6619 46.6667 24.1403ZM48 24.1403C48 10.8879 37.2582 0.14035 24 0.14035C10.7476 0.14035 0 10.8879 0 24.1403C0 37.3928 10.7476 48.1404 24 48.1404C37.2524 48.1404 48 37.3985 48 24.1403Z" fill="#05342F"/>
<path d="M26.5407 22.2179L26.7252 21.4696C27.8897 21.3853 29.1438 21.1851 30.4875 20.8584C30.1292 21.907 29.871 22.7553 29.7076 23.3982L28.8856 26.8074C30.6877 26.8074 32.0419 26.3543 32.9535 25.4532C33.8651 24.5522 34.3183 23.4772 34.3183 22.2337C34.3183 21.3695 33.9916 20.6687 33.3329 20.1365C32.6742 19.6043 31.6941 19.3408 30.3926 19.3408C28.5484 19.3408 26.7937 19.7782 25.118 20.6581C23.4477 21.5328 22.1461 22.6816 21.2135 24.0937C20.2808 25.5059 19.8171 26.9234 19.8171 28.3408C19.8171 28.7307 19.8698 29.0891 19.9752 29.421C20.0806 29.753 20.2386 30.0533 20.4389 30.3326C20.5601 30.496 20.8288 30.7226 21.2503 31.0071C21.7193 31.3338 22.0091 31.5762 22.1198 31.7343C22.2304 31.8923 22.2884 32.0768 22.2884 32.2928C22.2884 32.5089 22.2094 32.6933 22.0513 32.8514C21.8932 33.0094 21.7035 33.0885 21.4769 33.0885C20.8973 33.0885 20.3071 32.6669 19.7117 31.8186C19.1163 30.9702 18.8159 29.9269 18.8159 28.6833C18.8159 26.9708 19.327 25.311 20.3493 23.7038C21.3715 22.0967 22.8206 20.8109 24.6965 19.8414C26.5724 18.8718 28.6327 18.3871 30.8879 18.3871C32.7217 18.3871 34.1128 18.7506 35.0665 19.4725C36.0203 20.1944 36.4945 21.0797 36.4945 22.1177C36.4945 23.1084 36.1731 24.0042 35.5302 24.8156C34.8874 25.6271 33.9178 26.2489 32.611 26.6915C33.5068 26.8338 34.2182 27.0762 34.7345 27.4187C35.2562 27.7612 35.6514 28.188 35.936 28.7097C36.2152 29.2313 36.3575 29.8268 36.3575 30.496C36.3575 31.5973 36.0361 32.6353 35.3879 33.6207C34.7398 34.6008 33.7861 35.4175 32.532 36.0656C31.2726 36.7138 29.9605 37.0352 28.5958 37.0352C28.2006 37.0352 27.347 36.9931 26.0454 36.914C25.4237 36.8824 24.7703 36.8666 24.0905 36.8666C23.0525 36.8666 22.1303 36.9456 21.3241 37.109L21.556 36.2659C22.6256 36.2027 23.3897 35.9497 23.8429 35.4966C24.296 35.0434 24.7228 34.0475 25.118 32.5036L27.3786 23.6195C27.4682 23.2401 27.5156 22.9503 27.5156 22.7553C27.5156 22.6025 27.4523 22.4655 27.3259 22.3496C27.1994 22.2337 27.0361 22.1704 26.8464 22.1704C26.7621 22.1704 26.6619 22.1862 26.5407 22.2179ZM28.6379 27.7243L27.8581 30.8016C27.4629 32.3929 27.0782 33.6154 26.7146 34.4743C26.4986 34.9854 26.2193 35.4175 25.8768 35.7706C26.7937 35.9971 27.5841 36.1078 28.248 36.1078C30.029 36.1078 31.378 35.5598 32.2896 34.4532C33.2012 33.3519 33.6596 32.1242 33.6596 30.7647C33.6596 30.0902 33.491 29.5106 33.1485 29.0311C32.806 28.5516 32.3581 28.2091 31.8048 28.0141C31.2515 27.8244 30.1977 27.7243 28.6379 27.7243Z" fill="#BCA36E"/>
<path d="M19.7803 28.5305C19.4114 28.5832 19.0426 28.6095 18.6685 28.6095C18.3049 28.6095 17.5198 28.5727 16.3236 28.4989C15.7545 28.4725 15.1538 28.4567 14.5268 28.4567C13.573 28.4567 12.7247 28.5305 11.987 28.6833L12.1977 27.9087C13.1831 27.8508 13.8787 27.6189 14.2949 27.2026C14.7112 26.7864 15.1011 25.8695 15.4647 24.452L17.5408 16.2899C17.6251 15.9421 17.6673 15.6786 17.6673 15.4995C17.6673 15.3572 17.6093 15.2307 17.4934 15.1253C17.3775 15.0147 17.2299 14.962 17.0508 14.962C16.977 14.962 16.8822 14.9778 16.7715 15.0041L16.9401 14.3139C18.0098 14.2401 19.1585 14.0504 20.3968 13.75C20.0701 14.7143 19.833 15.4942 19.6802 16.0844L18.9214 19.2196C20.576 19.2196 21.8248 18.8033 22.6574 17.976C23.4952 17.1488 23.9115 16.1634 23.9115 15.0199C23.9115 14.2243 23.6111 13.5814 23.0051 13.0966C22.3992 12.6119 21.4981 12.3642 20.302 12.3642C18.6052 12.3642 16.9928 12.7647 15.4595 13.5709C13.9261 14.3771 12.7299 15.431 11.871 16.7272C11.0121 18.0235 10.5853 19.325 10.5853 20.6265C10.5853 20.9848 10.6327 21.3115 10.7329 21.6171C10.833 21.9228 10.9753 22.202 11.1597 22.455C11.2703 22.6025 11.518 22.8133 11.9027 23.0715C12.3347 23.3718 12.5982 23.5931 12.7036 23.7407C12.809 23.8882 12.8564 24.0568 12.8564 24.2518C12.8564 24.4468 12.7826 24.6207 12.6404 24.7629C12.4928 24.9105 12.3189 24.979 12.1134 24.979C11.5812 24.979 11.0385 24.589 10.4905 23.8145C9.94246 23.0346 9.66846 22.0756 9.66846 20.9321C9.66846 19.3566 10.1374 17.8338 11.0806 16.3584C12.0238 14.8829 13.3517 13.6973 15.0748 12.8068C16.7979 11.9163 18.6948 11.4737 20.7604 11.4737C22.4466 11.4737 23.727 11.8057 24.6017 12.4696C25.4764 13.1335 25.9138 13.945 25.9138 14.8988C25.9138 15.8051 25.6187 16.6324 25.0286 17.3806C24.4384 18.1236 23.5426 18.6979 22.3465 19.1037C23.1685 19.2354 23.8219 19.4567 24.2961 19.7676C24.6492 19.9995 24.9074 20.226 25.1392 20.5475L23.1316 21.8437C23.0526 21.6119 22.9682 21.4591 22.826 21.2588C22.5151 20.8162 22.0988 20.5 21.593 20.3262C21.0818 20.147 20.1123 20.0574 18.6843 20.0574L17.9677 22.8818C17.6041 24.3414 17.251 25.469 16.9191 26.2542C16.7188 26.7231 16.4659 27.1183 16.1497 27.445C16.9928 27.6505 17.72 27.7559 18.326 27.7559C18.8582 27.7559 19.3535 27.7032 19.8014 27.5926L19.7803 28.5305Z" fill="#BCA36E"/>
<path d="M20.1807 28.4569C20.9131 28.3146 21.6245 28.0669 22.32 27.7086C23.474 27.1132 24.3487 26.3649 24.9441 25.4639C25.5396 24.5628 25.8347 23.6038 25.8347 22.5921C25.8347 22.0072 25.7187 21.4855 25.4921 21.0271C25.4658 21.0376 25.4447 21.0534 25.4184 21.064C24.6491 21.4592 23.9535 21.9123 23.3265 22.4182V22.4077C23.3475 22.5499 23.3528 22.6975 23.3528 22.8503C23.3528 24.0939 22.9365 25.2268 22.0987 26.2385C21.6139 26.8234 20.9921 27.2396 20.2386 27.4873C20.2017 27.7719 20.1807 28.0564 20.1807 28.3409V28.4569Z" fill="#BCA36E"/>
<path d="M26.9148 22.0029L27.107 21.2232C28.3205 21.1354 29.6273 20.9267 31.0275 20.5863C30.6541 21.6789 30.3851 22.563 30.2149 23.2329L29.3583 26.7855C31.2362 26.7855 32.6473 26.3132 33.5972 25.3743C34.5472 24.4354 35.0194 23.3152 35.0194 22.0194C35.0194 21.1189 34.6789 20.3886 33.9926 19.834C33.3062 19.2794 32.2849 19.0049 30.9287 19.0049C29.0069 19.0049 27.1784 19.4606 25.4323 20.3776C23.6917 21.2891 22.3355 22.4861 21.3636 23.9577C20.3917 25.4292 19.9085 26.9063 19.9085 28.3833C19.9085 28.7896 19.9634 29.163 20.0732 29.5089C20.183 29.8549 20.3478 30.1678 20.5564 30.4589C20.6827 30.6291 20.9627 30.8652 21.402 31.1617C21.8907 31.5021 22.1927 31.7547 22.308 31.9194C22.4233 32.0842 22.4837 32.2763 22.4837 32.5015C22.4837 32.7266 22.4014 32.9188 22.2366 33.0835C22.0719 33.2482 21.8742 33.3306 21.6381 33.3306C21.0341 33.3306 20.4191 32.8913 19.7987 32.0073C19.1782 31.1233 18.8652 30.0361 18.8652 28.7402C18.8652 26.9557 19.3978 25.2261 20.4631 23.5513C21.5283 21.8766 23.0383 20.5368 24.993 19.5265C26.9478 18.5162 29.0947 18.011 31.4448 18.011C33.3556 18.011 34.8052 18.3899 35.7991 19.1422C36.7929 19.8944 37.2871 20.8169 37.2871 21.8986C37.2871 22.9309 36.9522 23.8643 36.2823 24.7099C35.6124 25.5555 34.6021 26.2034 33.2403 26.6647C34.1738 26.8129 34.915 27.0655 35.4531 27.4224C35.9967 27.7793 36.4086 28.2241 36.7051 28.7677C36.9961 29.3113 37.1443 29.9317 37.1443 30.6291C37.1443 31.7767 36.8094 32.8584 36.134 33.8852C35.4586 34.9065 34.4648 35.7575 33.158 36.4329C31.8456 37.1083 30.4784 37.4432 29.0563 37.4432C28.6445 37.4432 27.7549 37.3993 26.3987 37.317C25.7508 37.284 25.0699 37.2675 24.3616 37.2675C23.2799 37.2675 22.319 37.3499 21.4789 37.5201L21.7205 36.6416C22.8351 36.5757 23.6313 36.3121 24.1035 35.8399C24.5757 35.3677 25.0205 34.3299 25.4323 32.7211L27.7879 23.4635C27.8812 23.0681 27.9307 22.7661 27.9307 22.563C27.9307 22.4037 27.8648 22.261 27.733 22.1402C27.6012 22.0194 27.431 21.9535 27.2333 21.9535C27.1455 21.9535 27.0411 21.97 26.9148 22.0029ZM29.1002 27.7464L28.2876 30.953C27.8757 32.6113 27.4749 33.8852 27.096 34.7802C26.8709 35.3128 26.5799 35.763 26.223 36.1309C27.1784 36.367 28.002 36.4823 28.6939 36.4823C30.5498 36.4823 31.9555 35.9113 32.9054 34.7582C33.8553 33.6106 34.333 32.3312 34.333 30.9146C34.333 30.2118 34.1573 29.6078 33.8004 29.1081C33.4435 28.6029 32.9768 28.2515 32.4002 28.0484C31.8237 27.8452 30.7255 27.7464 29.1002 27.7464Z" fill="#05342F"/>
<path d="M19.87 28.581C19.4856 28.6359 19.1013 28.6633 18.7114 28.6633C18.3325 28.6633 17.5144 28.6249 16.268 28.548C15.675 28.5206 15.049 28.5041 14.3956 28.5041C13.4017 28.5041 12.5177 28.581 11.749 28.7402L11.9686 27.933C12.9954 27.8726 13.7202 27.631 14.154 27.1973C14.5878 26.7635 14.9941 25.8081 15.373 24.331L17.5364 15.8257C17.6242 15.4633 17.6681 15.1887 17.6681 15.002C17.6681 14.8538 17.6077 14.722 17.4869 14.6122C17.3661 14.4969 17.2124 14.442 17.0257 14.442C16.9488 14.442 16.85 14.4584 16.7347 14.4859L16.9104 13.7666C18.0251 13.6897 19.2221 13.492 20.5124 13.1791C20.172 14.1839 19.9249 14.9965 19.7657 15.6115L18.975 18.8786C20.6991 18.8786 22.0004 18.4448 22.868 17.5827C23.741 16.7207 24.1748 15.6939 24.1748 14.5024C24.1748 13.6732 23.8618 13.0034 23.2304 12.4982C22.5989 11.993 21.66 11.735 20.4136 11.735C18.6455 11.735 16.9653 12.1523 15.3675 12.9924C13.7696 13.8325 12.5232 14.9307 11.6282 16.2814C10.7332 17.6322 10.2884 18.9884 10.2884 20.3447C10.2884 20.718 10.3378 21.0585 10.4422 21.3769C10.5465 21.6954 10.6947 21.9864 10.8869 22.25C11.0022 22.4037 11.2603 22.6234 11.6611 22.8924C12.1114 23.2054 12.3859 23.436 12.4957 23.5898C12.6056 23.7435 12.655 23.9192 12.655 24.1224C12.655 24.3255 12.5781 24.5067 12.4299 24.655C12.2761 24.8087 12.0949 24.8801 11.8808 24.8801C11.3262 24.8801 10.7606 24.4738 10.1896 23.6666C9.61853 22.854 9.33301 21.8546 9.33301 20.6631C9.33301 19.0214 9.8217 17.4345 10.8046 15.897C11.7874 14.3596 13.1711 13.1242 14.9666 12.1962C16.7622 11.2682 18.7389 10.807 20.8913 10.807C22.6484 10.807 23.9826 11.1529 24.8941 11.8448C25.8056 12.5366 26.2614 13.3822 26.2614 14.3761C26.2614 15.3205 25.9539 16.1826 25.3389 16.9623C24.7239 17.7365 23.7905 18.335 22.544 18.7578C23.4006 18.8951 24.0815 19.1257 24.5757 19.4496C24.9435 19.6912 25.2126 19.9273 25.4542 20.2623L23.3622 21.613C23.2798 21.3714 23.192 21.2122 23.0437 21.0036C22.7197 20.5423 22.286 20.2129 21.7588 20.0317C21.2262 19.845 20.2159 19.7516 18.7279 19.7516L17.9976 22.7057C17.6187 24.2267 17.2508 25.4017 16.9049 26.2199C16.6963 26.7086 16.4327 27.1204 16.1032 27.4608C16.9818 27.675 17.7395 27.7848 18.371 27.7848C18.9256 27.7848 19.4417 27.7299 19.9084 27.6146L19.87 28.581Z" fill="#05342F"/>
<path d="M20.2871 28.5041C21.0503 28.3559 21.7916 28.0978 22.5164 27.7244C23.7189 27.104 24.6304 26.3243 25.2508 25.3853C25.8713 24.4464 26.1788 23.4471 26.1788 22.3928C26.1788 21.7833 26.058 21.2397 25.8219 20.762C25.7944 20.773 25.7725 20.7895 25.745 20.8005C24.9434 21.2123 24.2186 21.6845 23.5652 22.2116V22.2006C23.5871 22.3489 23.5926 22.5026 23.5926 22.6619C23.5926 23.9577 23.1588 25.1382 22.2858 26.1925C21.7806 26.802 21.1327 27.2358 20.3475 27.4938C20.3091 27.7903 20.2871 28.0868 20.2871 28.3833V28.5041Z" fill="#05342F"/>
</svg>
