<svg width="16" height="16" viewBox="0 0 16 16" fill="none" xmlns="http://www.w3.org/2000/svg">
<path d="M8.21152 14.5788C8.12609 14.6321 8.05525 14.6754 8.00091 14.7083C7.94649 14.6749 7.87544 14.6309 7.78973 14.5768C7.57332 14.4401 7.26353 14.2395 6.8915 13.9841C6.14697 13.473 5.15545 12.7446 4.16509 11.8738C3.17365 11.002 2.19014 9.99356 1.45616 8.92354C0.720637 7.85127 0.25 6.73805 0.25 5.65157C0.25 3.20482 2.10192 1.25014 4.35201 1.25015L4.3541 1.25013C5.7322 1.23865 7.02815 1.97938 7.78635 3.22761L7.99878 3.57733L8.21301 3.22872C8.9767 1.98606 10.2699 1.2467 11.647 1.25014C13.893 1.26201 15.7386 3.21017 15.75 5.65209C15.7499 6.75618 15.2787 7.87799 14.5437 8.95268C13.8099 10.0256 12.8266 11.0317 11.8354 11.899C10.8452 12.7654 9.85392 13.4874 9.10954 13.993C8.73759 14.2457 8.42786 14.4439 8.21152 14.5788Z" stroke="#05342F" stroke-width="0.5"/>
</svg>
