<svg width="151" height="93" viewBox="0 0 151 93" fill="none" xmlns="http://www.w3.org/2000/svg">
<g opacity="0.3">
<path d="M45.4796 4C53.1306 4 59.9619 5.80295 65.9735 9.40884C71.985 12.9055 76.6849 17.9319 80.0733 24.488C83.4616 31.0442 85.1558 38.5838 85.1558 47.1068C85.1558 55.8484 83.4069 63.7158 79.9093 70.709C76.4117 77.593 71.4932 83.0565 65.1537 87.0994C58.9236 91.0331 51.7644 93 43.6761 93C36.1344 93 29.3578 91.2517 23.3462 87.7551C17.3347 84.1492 12.5801 79.0681 9.08248 72.512C5.69416 65.9558 4 58.3616 4 49.7293C4 41.097 5.69416 33.3389 9.08248 26.4549C12.5801 19.4616 17.444 13.9982 23.6741 10.0645C30.0136 6.02149 37.2821 4 45.4796 4ZM44.004 6.95028C39.3041 6.95028 35.096 8.64396 31.3798 12.0313C27.7729 15.3094 24.9311 20.1719 22.8544 26.6188C20.887 32.9564 19.9032 40.496 19.9032 49.2376C19.9032 63.1148 22.2532 73.3861 26.9531 80.0516C31.6531 86.717 37.7193 90.0497 45.1517 90.0497C49.8516 90.0497 54.0051 88.356 57.612 84.9687C61.3282 81.5813 64.17 76.7188 66.1374 70.3812C68.2141 63.9343 69.2525 56.3401 69.2525 47.5985C69.2525 33.8306 66.9025 23.6139 62.2026 16.9484C57.5027 10.283 51.4365 6.95028 44.004 6.95028Z" fill="#BCA36E"/>
<path d="M135.261 73.8232C135.261 78.9589 136.408 82.5101 138.704 84.477C141.108 86.3346 145.207 87.2634 151 87.2634V90.7053C139.196 90.2683 131.654 90.0497 128.375 90.0497C125.314 90.0497 118.21 90.2136 107.061 90.5414L103.126 90.7053V87.2634C108.919 87.2634 113.237 86.2799 116.078 84.3131C119.03 82.3462 120.505 78.8496 120.505 73.8232V34.1584C120.505 28.9134 119.959 25.089 118.866 22.6851C117.773 20.1719 115.914 18.5328 113.291 17.768C110.777 16.8938 106.843 16.4567 101.487 16.4567V12.8508C109.466 12.6323 116.024 11.922 121.161 10.7201C126.407 9.51811 131.107 7.44199 135.261 4.49172V73.8232Z" fill="#BCA36E"/>
</g>
<path d="M41.4796 0C49.1306 0 55.9619 1.80295 61.9735 5.40884C67.985 8.90547 72.6849 13.9319 76.0733 20.488C79.4616 27.0442 81.1558 34.5838 81.1558 43.1068C81.1558 51.8484 79.4069 59.7158 75.9093 66.709C72.4117 73.593 67.4932 79.0565 61.1537 83.0994C54.9236 87.0331 47.7644 89 39.6761 89C32.1344 89 25.3578 87.2517 19.3462 83.7551C13.3347 80.1492 8.5801 75.0681 5.08248 68.512C1.69416 61.9558 0 54.3616 0 45.7293C0 37.097 1.69416 29.3389 5.08248 22.4549C8.5801 15.4616 13.444 9.99817 19.6741 6.06447C26.0136 2.02149 33.2821 0 41.4796 0ZM40.004 2.95028C35.3041 2.95028 31.096 4.64396 27.3798 8.03132C23.7729 11.3094 20.9311 16.1719 18.8544 22.6188C16.887 28.9564 15.9032 36.496 15.9032 45.2376C15.9032 59.1148 18.2532 69.3861 22.9531 76.0516C27.6531 82.717 33.7193 86.0497 41.1517 86.0497C45.8516 86.0497 50.0051 84.356 53.612 80.9687C57.3282 77.5813 60.17 72.7188 62.1374 66.3812C64.2141 59.9343 65.2525 52.3401 65.2525 43.5985C65.2525 29.8306 62.9025 19.6139 58.2026 12.9484C53.5027 6.283 47.4365 2.95028 40.004 2.95028Z" fill="#286460"/>
<path d="M131.261 69.8232C131.261 74.9589 132.408 78.5101 134.704 80.477C137.108 82.3346 141.207 83.2634 147 83.2634V86.7053C135.196 86.2683 127.654 86.0497 124.375 86.0497C121.314 86.0497 114.21 86.2136 103.061 86.5414L99.1263 86.7053V83.2634C104.919 83.2634 109.237 82.2799 112.078 80.3131C115.03 78.3462 116.505 74.8496 116.505 69.8232V30.1584C116.505 24.9135 115.959 21.089 114.866 18.6851C113.773 16.1719 111.914 14.5328 109.291 13.768C106.777 12.8938 102.843 12.4567 97.4868 12.4567V8.85084C105.466 8.6323 112.024 7.92204 117.161 6.72008C122.407 5.51811 127.107 3.44199 131.261 0.491717V69.8232Z" fill="#286460"/>
</svg>
