<svg width="165" height="94" viewBox="0 0 165 94" fill="none" xmlns="http://www.w3.org/2000/svg">
<g opacity="0.3">
<path d="M45.4961 4C53.1502 4 59.9843 5.80418 65.9982 9.41255C72.0121 12.9116 76.7139 17.9414 80.1036 24.5021C83.4933 31.0627 85.1881 38.6075 85.1881 47.1363C85.1881 55.8839 83.4386 63.7566 79.9396 70.7547C76.4406 77.6434 71.5201 83.1106 65.1781 87.1563C58.9455 91.0927 51.7834 93.0609 43.692 93.0609C36.1472 93.0609 29.3679 91.3114 23.3539 87.8124C17.34 84.204 12.5835 79.1195 9.08451 72.5588C5.69484 65.9982 4 58.3988 4 49.7606C4 41.1224 5.69484 33.3589 9.08451 26.4703C12.5835 19.4722 17.4493 14.005 23.682 10.0686C30.0239 6.02287 37.2953 4 45.4961 4ZM44.02 6.9523C39.3182 6.9523 35.1084 8.64714 31.3907 12.0368C27.7824 15.3171 24.9394 20.183 22.8619 26.6343C20.8937 32.9762 19.9096 40.521 19.9096 49.2685C19.9096 63.1553 22.2605 73.4336 26.9623 80.1036C31.6641 86.7736 37.7327 90.1086 45.1681 90.1086C49.8699 90.1086 54.025 88.4138 57.6334 85.0241C61.3511 81.6344 64.194 76.7686 66.1622 70.4266C68.2397 63.9753 69.2785 56.3759 69.2785 47.6284C69.2785 33.851 66.9276 23.6273 62.2258 16.9573C57.524 10.2873 51.4554 6.9523 44.02 6.9523Z" fill="#BCA36E"/>
<path d="M133.837 4C141.491 4 147.505 5.80418 151.879 9.41255C156.252 13.0209 158.439 18.1054 158.439 24.6661C158.439 29.1492 157.237 33.523 154.831 37.7874C152.535 41.9425 149.692 45.7695 146.302 49.2685C143.022 52.7675 138.648 56.9773 133.181 61.8978C128.698 66.0529 125.363 69.2238 123.176 71.4107C120.989 73.4883 119.021 75.7298 117.271 78.1354H150.567C153.519 78.1354 155.706 77.9167 157.127 77.4793C158.658 76.9326 159.697 76.1125 160.244 75.0191C160.79 73.8163 161.228 72.0668 161.556 69.7706H164.344C164.344 79.8302 164.563 87.1016 165 91.5847C162.594 91.038 154.448 90.7647 140.562 90.7647H102.182V87.9764C104.041 86.0082 107.212 82.8919 111.695 78.6275C117.927 72.8322 123.121 67.6384 127.276 63.0459C131.431 58.3441 134.985 53.0409 137.937 47.1363C140.999 41.2317 142.53 34.9444 142.53 28.2744C142.53 16.4653 137.063 10.5607 126.128 10.5607C117.162 10.5607 109.836 15.6998 104.15 25.9782L101.526 24.5021C104.369 18.5975 108.414 13.7316 113.663 9.90459C118.911 5.9682 125.636 4 133.837 4Z" fill="#BCA36E"/>
</g>
<path d="M41.4961 0C49.1502 0 55.9843 1.80418 61.9982 5.41255C68.0121 8.91156 72.7139 13.9414 76.1036 20.5021C79.4933 27.0627 81.1881 34.6075 81.1881 43.1363C81.1881 51.8839 79.4386 59.7566 75.9396 66.7547C72.4406 73.6434 67.5201 79.1106 61.1781 83.1563C54.9455 87.0927 47.7834 89.0609 39.692 89.0609C32.1472 89.0609 25.3679 87.3114 19.3539 83.8124C13.34 80.204 8.58352 75.1195 5.08451 68.5588C1.69484 61.9982 0 54.3988 0 45.7606C0 37.1224 1.69484 29.3589 5.08451 22.4703C8.58352 15.4722 13.4493 10.005 19.682 6.06861C26.0239 2.02287 33.2953 0 41.4961 0ZM40.02 2.9523C35.3182 2.9523 31.1084 4.64714 27.3907 8.03681C23.7824 11.3171 20.9394 16.183 18.8619 22.6343C16.8937 28.9762 15.9096 36.521 15.9096 45.2685C15.9096 59.1553 18.2605 69.4336 22.9623 76.1036C27.6641 82.7736 33.7327 86.1086 41.1681 86.1086C45.8699 86.1086 50.025 84.4138 53.6334 81.0241C57.3511 77.6344 60.194 72.7686 62.1622 66.4266C64.2397 59.9753 65.2785 52.3759 65.2785 43.6284C65.2785 29.851 62.9276 19.6273 58.2258 12.9573C53.524 6.2873 47.4554 2.9523 40.02 2.9523Z" fill="#286460"/>
<path d="M129.837 0C137.491 0 143.505 1.80418 147.879 5.41255C152.252 9.0209 154.439 14.1054 154.439 20.6661C154.439 25.1492 153.237 29.523 150.831 33.7874C148.535 37.9425 145.692 41.7695 142.302 45.2685C139.022 48.7675 134.648 52.9773 129.181 57.8978C124.698 62.0529 121.363 65.2238 119.176 67.4107C116.989 69.4883 115.021 71.7298 113.271 74.1354H146.567C149.519 74.1354 151.706 73.9167 153.127 73.4793C154.658 72.9326 155.697 72.1125 156.244 71.0191C156.79 69.8163 157.228 68.0668 157.556 65.7706H160.344C160.344 75.8302 160.563 83.1016 161 87.5847C158.594 87.038 150.448 86.7647 136.562 86.7647H98.1817V83.9764C100.041 82.0082 103.212 78.8919 107.695 74.6275C113.927 68.8322 119.121 63.6384 123.276 59.0459C127.431 54.3441 130.985 49.0409 133.937 43.1363C136.999 37.2317 138.53 30.9444 138.53 24.2744C138.53 12.4653 133.063 6.56066 122.128 6.56066C113.162 6.56066 105.836 11.6998 100.15 21.9782L97.5257 20.5021C100.369 14.5975 104.414 9.73164 109.663 5.90459C114.911 1.9682 121.636 0 129.837 0Z" fill="#286460"/>
</svg>
