<svg width="160" height="115" viewBox="0 0 160 115" fill="none" xmlns="http://www.w3.org/2000/svg">
<g opacity="0.3">
<path d="M45.3447 4C52.9708 4 59.7799 5.79559 65.7719 9.38677C71.7638 12.8691 76.4485 17.875 79.8258 24.4044C83.2031 30.9338 84.8917 38.4426 84.8917 46.9309C84.8917 55.6368 83.1486 63.4721 79.6624 70.4368C76.1761 77.2926 71.2736 82.7338 64.9548 86.7603C58.7449 90.6779 51.609 92.6368 43.5471 92.6368C36.0299 92.6368 29.2753 90.8956 23.2833 87.4132C17.2913 83.8221 12.5522 78.7618 9.06595 72.2324C5.68865 65.7029 4 58.1397 4 49.5427C4 40.9456 5.68865 33.2191 9.06595 26.3632C12.5522 19.3985 17.4002 13.9574 23.6101 10.0397C29.9289 6.01324 37.1738 4 45.3447 4ZM43.8739 6.93824C39.1893 6.93824 34.9949 8.62501 31.2907 11.9985C27.6956 15.2632 24.863 20.1059 22.793 26.5265C20.832 32.8382 19.8515 40.3471 19.8515 49.053C19.8515 62.8735 22.1938 73.103 26.8785 79.7412C31.5631 86.3794 37.6096 89.6985 45.0178 89.6985C49.7025 89.6985 53.8424 88.0118 57.4376 84.6382C61.1417 81.2647 63.9743 76.4221 65.9353 70.1103C68.0052 63.6897 69.0402 56.1265 69.0402 47.4206C69.0402 33.7088 66.6979 23.5338 62.0133 16.8956C57.3286 10.2574 51.2822 6.93824 43.8739 6.93824Z" fill="#BCA36E"/>
<path d="M130.585 4C137.448 4 143.059 5.68677 147.417 9.0603C151.884 12.4338 154.117 16.95 154.117 22.6088C154.117 28.5941 151.72 33.9809 146.927 38.7691C142.242 43.5574 136.522 47.1485 129.768 49.5427C138.157 49.7603 145.292 51.9912 151.175 56.2353C157.058 60.4794 160 66.5191 160 74.3544C160 82.1897 156.95 89.2088 150.849 95.4118C144.857 101.615 137.176 106.403 127.807 109.776C118.546 113.259 109.123 115 99.5355 115V112.062C107.271 111.844 114.57 110.212 121.433 107.165C128.297 104.226 133.853 99.9279 138.102 94.2691C142.351 88.7191 144.475 82.0809 144.475 74.3544C144.475 67.9338 142.896 62.6559 139.736 58.5206C136.577 54.2765 132.382 51.9368 127.153 51.5015C126.717 51.7191 125.573 52.2088 123.721 52.9706C121.978 53.6235 120.562 53.95 119.472 53.95C117.729 53.95 116.858 53.2427 116.858 51.8279C116.858 50.8485 117.239 50.0868 118.002 49.5427C118.873 48.9985 119.908 48.7265 121.107 48.7265C121.76 48.7265 122.632 48.8353 123.721 49.053C124.92 49.1618 125.955 49.2706 126.826 49.3794C131.075 46.1147 134.234 42.4691 136.304 38.4427C138.374 34.4162 139.409 30.2265 139.409 25.8735C139.409 20.8677 138.157 17.1677 135.651 14.7735C133.145 12.3794 129.659 11.1824 125.192 11.1824C120.616 11.1824 116.476 12.4338 112.772 14.9368C109.068 17.3309 105.963 20.9221 103.457 25.7103L100.679 24.4044C106.998 10.8015 116.967 4 130.585 4Z" fill="#BCA36E"/>
</g>
<path d="M41.3447 0C48.9708 0 55.7799 1.79559 61.7719 5.38677C67.7638 8.86912 72.4485 13.875 75.8258 20.4044C79.2031 26.9338 80.8917 34.4426 80.8917 42.9309C80.8917 51.6368 79.1486 59.4721 75.6624 66.4368C72.1761 73.2926 67.2736 78.7338 60.9548 82.7603C54.7449 86.6779 47.609 88.6368 39.5471 88.6368C32.0299 88.6368 25.2753 86.8956 19.2833 83.4132C13.2913 79.8221 8.55219 74.7618 5.06595 68.2324C1.68865 61.7029 0 54.1397 0 45.5427C0 36.9456 1.68865 29.2191 5.06595 22.3632C8.55219 15.3985 13.4002 9.95736 19.6101 6.03971C25.9289 2.01324 33.1738 0 41.3447 0ZM39.8739 2.93824C35.1893 2.93824 30.9949 4.62501 27.2907 7.99854C23.6956 11.2632 20.863 16.1059 18.793 22.5265C16.832 28.8382 15.8515 36.3471 15.8515 45.053C15.8515 58.8735 18.1938 69.103 22.8785 75.7412C27.5631 82.3794 33.6096 85.6985 41.0178 85.6985C45.7025 85.6985 49.8424 84.0118 53.4376 80.6382C57.1417 77.2647 59.9743 72.4221 61.9353 66.1103C64.0052 59.6897 65.0402 52.1265 65.0402 43.4206C65.0402 29.7088 62.6979 19.5338 58.0133 12.8956C53.3286 6.25736 47.2822 2.93824 39.8739 2.93824Z" fill="#286460"/>
<path d="M126.585 0C133.448 0 139.059 1.68677 143.417 5.0603C147.884 8.43383 150.117 12.95 150.117 18.6088C150.117 24.5941 147.72 29.9809 142.927 34.7691C138.242 39.5574 132.522 43.1485 125.768 45.5427C134.157 45.7603 141.292 47.9912 147.175 52.2353C153.058 56.4794 156 62.5191 156 70.3544C156 78.1897 152.95 85.2088 146.849 91.4118C140.857 97.6147 133.176 102.403 123.807 105.776C114.546 109.259 105.123 111 95.5355 111V108.062C103.271 107.844 110.57 106.212 117.433 103.165C124.297 100.226 129.853 95.9279 134.102 90.2691C138.351 84.7191 140.475 78.0809 140.475 70.3544C140.475 63.9338 138.896 58.6559 135.736 54.5206C132.577 50.2765 128.382 47.9368 123.153 47.5015C122.717 47.7191 121.573 48.2088 119.721 48.9706C117.978 49.6235 116.562 49.95 115.472 49.95C113.729 49.95 112.858 49.2427 112.858 47.8279C112.858 46.8485 113.239 46.0868 114.002 45.5427C114.873 44.9985 115.908 44.7265 117.107 44.7265C117.76 44.7265 118.632 44.8353 119.721 45.053C120.92 45.1618 121.955 45.2706 122.826 45.3794C127.075 42.1147 130.234 38.4691 132.304 34.4427C134.374 30.4162 135.409 26.2265 135.409 21.8735C135.409 16.8677 134.157 13.1677 131.651 10.7735C129.145 8.37942 125.659 7.18236 121.192 7.18236C116.616 7.18236 112.476 8.43383 108.772 10.9368C105.068 13.3309 101.963 16.9221 99.4575 21.7103L96.6794 20.4044C102.998 6.80148 112.967 0 126.585 0Z" fill="#286460"/>
</svg>
